# xmcd
#
# Track frame offsets:
#        150
#        20587
#        40525
#
# Disc length: 670 seconds
#
# Revision: 0
# Processed by: cddbd v1.5.1PL2 Copyright (c) Steve Scherf et al.
# Submitted via: ExactAudioCopy v0.95b3
#
DISCID=18029c03
DTITLE=Morelenbaum2 Sakamoto - O Grande Amor
DYEAR=2001
DGENRE=Acoustic
TTITLE0=O Grande Amor
TTITLE1=O Grande Amor (Live)
TTITLE2=Samba Do Aviao - Antonio Carlos Jobim
EXTD=
EXTT0=
EXTT1=
EXTT2=
PLAYORDER=
